<?xml version="1.0" standalone="no"?><!DOCTYPE svg PUBLIC "-//W3C//DTD SVG 1.1//EN" "http://www.w3.org/Graphics/SVG/1.1/DTD/svg11.dtd"><svg t="1708959323066" class="icon" viewBox="0 0 1024 1024" version="1.1" xmlns="http://www.w3.org/2000/svg" p-id="6407" xmlns:xlink="http://www.w3.org/1999/xlink" width="200" height="200"><path d="M902.729143 128l44.251428 7.094857a44.836571 44.836571 0 0 0-62.244571-48.128l17.993143 41.033143zM128 468.845714l-18.066286-41.033143a44.836571 44.836571 0 0 0-6.582857 78.409143l24.649143-37.376z m651.849143 428.617143l-24.649143 37.376a44.836571 44.836571 0 0 0 68.827429-30.354286l-44.178286-7.021714z m154.550857-737.645714a44.763429 44.763429 0 1 0-63.122286-63.634286l63.122286 63.634286zM375.734857 650.971429l-31.524571-31.817143a44.763429 44.763429 0 0 0-13.238857 31.817143h44.763428z m0 246.418285h-44.763428a44.763429 44.763429 0 0 0 67.730285 38.4l-22.966857-38.4zM593.92 819.2a44.836571 44.836571 0 0 0-45.933714-76.8l45.933714 76.8z m290.816-732.16L109.860571 427.739429l36.132572 81.993142 774.729143-340.845714-36.132572-81.92zM103.277714 506.148571l651.849143 428.617143 49.225143-74.825143-651.776-428.617142-49.298286 74.825142z m720.676572 398.262858l122.953143-769.462858-88.502858-14.116571-122.88 769.462857 88.502858 14.116572z m47.250285-808.228572l-527.067428 522.971429 63.122286 63.634285 527.067428-523.044571-63.122286-63.634286zM330.971429 650.971429v246.418285H420.571429V650.971429H330.971429z m67.730285 284.818285l195.218286-116.589714-45.933714-76.946286-195.218286 116.662857 45.933714 76.873143z" p-id="6408"></path></svg>