<?xml version="1.0" ?><!DOCTYPE svg  PUBLIC '-//W3C//DTD SVG 1.1//EN'  'http://www.w3.org/Graphics/SVG/1.1/DTD/svg11.dtd'><svg enable-background="new 0 0 64 64" height="64px" id="Icons" version="1.1" viewBox="0 0 64 64" width="64px" xml:space="preserve" xmlns="http://www.w3.org/2000/svg" xmlns:xlink="http://www.w3.org/1999/xlink"><g id="visual_identities"><g><path d="M32,24c-4.419,0-8,3.581-8,8s3.581,8,8,8s8-3.581,8-8S36.419,24,32,24z M32,39c-3.866,0-7-3.134-7-7    s3.134-7,7-7s7,3.134,7,7S35.866,39,32,39z" fill="#2B414D"/><path d="M32,17c12.615,0,23.354,12.129,25.72,15C55.354,34.871,44.615,47,32,47S8.646,34.871,6.28,32    C8.646,29.129,19.385,17,32,17 M32,16C17.082,16,5,32,5,32s12.082,16,27,16s27-16,27-16S46.918,16,32,16L32,16z" fill="#37474F"/><path d="M32,19c7.168,0,13,5.832,13,13s-5.832,13-13,13s-13-5.832-13-13S24.832,19,32,19 M32,18    c-7.735,0-14,6.265-14,14s6.265,14,14,14s14-6.265,14-14S39.735,18,32,18L32,18z" fill="#37474F"/><g><path d="M32,37.497c-1.408,0-2.816-0.536-3.889-1.608l0.707-0.707c1.754,1.754,4.609,1.754,6.363,0     c0.85-0.85,1.317-1.979,1.317-3.182s-0.468-2.332-1.317-3.182l0.707-0.707c1.039,1.038,1.61,2.419,1.61,3.889     c0,1.469-0.571,2.851-1.61,3.889C34.816,36.961,33.408,37.497,32,37.497z" fill="#37474F"/></g></g></g></svg>