<?xml version="1.0" standalone="no"?><!DOCTYPE svg PUBLIC "-//W3C//DTD SVG 1.1//EN" "http://www.w3.org/Graphics/SVG/1.1/DTD/svg11.dtd"><svg t="1709733440870" class="icon" viewBox="0 0 1027 1024" version="1.1" xmlns="http://www.w3.org/2000/svg" p-id="20366" xmlns:xlink="http://www.w3.org/1999/xlink" width="200.5859375" height="200"><path d="M785.066667 409.6c-17.066667 0-37.546667 3.413333-54.613334 6.826667C675.84 307.2 566.613333 238.933333 447.146667 238.933333c-157.013333 0-290.133333 116.053333-314.026667 273.066667-78.506667 23.893333-133.12 98.986667-133.12 184.32C0 802.133333 85.333333 887.466667 187.733333 887.466667h610.986667c126.293333-6.826667 225.28-112.64 225.28-238.933334 0-133.12-105.813333-238.933333-238.933333-238.933333z" fill="#f5f5f5" p-id="20367"></path><path d="M440.32 204.8h6.826667c119.466667 0 228.693333 61.44 296.96 163.84 3.413333 6.826667 10.24 10.24 17.066666 6.826667 88.746667-6.826667 177.493333 27.306667 235.52 95.573333 3.413333 3.413333 6.826667 6.826667 13.653334 6.826667h6.826666c6.826667-3.413333 10.24-6.826667 10.24-13.653334l-17.066666-3.413333h17.066666c0-105.813333-85.333333-191.146667-194.56-191.146667-13.653333 0-27.306667 0-40.96 3.413334-44.373333-85.333333-133.12-136.533333-225.28-136.533334-47.786667 0-92.16 13.653333-133.12 37.546667-6.826667 3.413333-10.24 10.24-6.826666 20.48 0 6.826667 6.826667 10.24 13.653333 10.24z" fill="#f5f5f5" p-id="20368"></path></svg>