<?xml version="1.0" standalone="no"?><!DOCTYPE svg PUBLIC "-//W3C//DTD SVG 1.1//EN" "http://www.w3.org/Graphics/SVG/1.1/DTD/svg11.dtd"><svg t="1709733237416" class="icon" viewBox="0 0 1024 1024" version="1.1" xmlns="http://www.w3.org/2000/svg" p-id="11194" xmlns:xlink="http://www.w3.org/1999/xlink" width="200" height="200"><path d="M499.77728 847.36l-172.8 147.2c-12.8 12.8-32 12.8-44.8-6.4-6.4-6.4-6.4-12.8-6.4-19.2l-19.2-224-224-19.2c-19.2 0-32-19.2-32-32 0-6.4 0-12.8 6.4-19.2l147.2-172.8-147.2-172.8c-12.8-12.8-6.4-32 6.4-44.8 6.4-6.4 12.8-6.4 19.2-6.4l224-19.2 19.2-224c0-19.2 19.2-32 32-32 6.4 0 12.8 0 19.2 6.4l172.8 147.2 172.8-147.2c12.8-12.8 32-12.8 44.8 6.4 6.4 6.4 6.4 12.8 6.4 19.2l19.2 224 224 19.2c19.2 0 32 19.2 32 32 0 6.4 0 12.8-6.4 19.2l-147.2 172.8 147.2 172.8c12.8 12.8 12.8 32-6.4 44.8-6.4 6.4-12.8 6.4-19.2 6.4l-224 19.2-19.2 224c0 19.2-19.2 32-32 32-6.4 0-12.8 0-19.2-6.4l-172.8-147.2z" fill="#FFCE60" p-id="11195"></path><path d="M505.622613 883.2C300.822613 883.2 128.022613 716.8 128.022613 505.6 128.022613 294.4 300.822613 128 505.622613 128s377.6 166.4 377.6 377.6c0 211.2-172.8 377.6-377.6 377.6z m0-51.2c179.2 0 326.4-147.2 326.4-326.4S684.822613 179.2 505.622613 179.2 179.222613 326.4 179.222613 505.6s147.2 326.4 326.4 326.4z" fill="#FFFFFF" p-id="11196"></path></svg>