<?xml version="1.0" standalone="no"?><!DOCTYPE svg PUBLIC "-//W3C//DTD SVG 1.1//EN" "http://www.w3.org/Graphics/SVG/1.1/DTD/svg11.dtd"><svg t="1709733269669" class="icon" viewBox="0 0 1024 1024" version="1.1" xmlns="http://www.w3.org/2000/svg" p-id="11501" xmlns:xlink="http://www.w3.org/1999/xlink" width="200" height="200"><path d="M249.088 820.309333l90.88-104.490666-0.085333 139.605333a53.674667 53.674667 0 1 1-90.794667-35.114667z m215.338667-0.554666l90.325333-103.936-0.128 139.605333a53.674667 53.674667 0 1 1-90.197333-35.669333z m215.381333-0.554667l89.685333-103.381333-0.085333 139.562666a53.674667 53.674667 0 1 1-89.6-36.181333zM281.984 266.666667a241.493333 241.493333 0 0 1 228.010667-159.36c124.373333 0 226.773333 92.714667 240.128 211.925333h1.493333c88.96 0 161.066667 71.168 161.066667 158.933333 0 87.808-72.106667 158.976-161.066667 158.976H295.253333c-103.765333 0-187.904-83.029333-187.904-185.472 0-98.005333 77.056-178.261333 174.634667-185.002666z" fill="#84A8B6" p-id="11502"></path></svg>